<svg xmlns="http://www.w3.org/2000/svg" viewBox="0 0 750 500"><g id="freepik--background-complete--inject-35"><rect x="615.07" y="376.37" width="44.4" height="11.19" transform="translate(1274.54 763.94) rotate(180)" style="fill:#ebebeb"></rect><rect x="256.34" y="111.63" width="44.4" height="11.19" transform="translate(557.09 234.44) rotate(180)" style="fill:#ebebeb"></rect><path d="M639.84,401.67c13-.18,31.56-.46,44.4-.46l-.47.46,0-11.19.5.5c-7.38,0-26.18-.07-33.3-.17l-11.1-.12.2-.21-.2,11.19Zm0,0-.2-11.19v-.19h.21c5.54-.07,16.66-.18,22.2-.22l22.2-.08h.5v.5l0,11.19v.47h-.46c-12.92,0-31.32-.3-44.4-.47Z" style="fill:#ebebeb"></path><rect x="162.01" y="257.86" width="44.4" height="11.19" transform="translate(368.41 526.9) rotate(180)" style="fill:#ebebeb"></rect><path d="M186.77,283.16c13.06-.19,31.56-.46,44.4-.47l-.46.47,0-11.19.5.5c-7.37,0-26.17-.08-33.3-.17l-11.1-.13.21-.2-.21,11.19Zm0,0-.2-11.19v-.2h.2c5.54-.07,16.67-.19,22.2-.23l22.2-.07h.5v.5l0,11.19v.46h-.46c-12.92,0-31.32-.29-44.4-.46Z" style="fill:#ebebeb"></path><path d="M472.18,283.51c13.05-.19,31.56-.46,44.4-.47l-.47.47,0-11.19.5.5c-7.38,0-26.18-.08-33.3-.17l-11.1-.13.2-.2-.2,11.19Zm0,0-.2-11.19v-.2h.21c5.54-.07,16.66-.19,22.2-.23l22.2-.07h.5v.5l0,11.19V284h-.46c-12.92,0-31.32-.29-44.4-.46Z" style="fill:#ebebeb"></path><path d="M496.94,297.62c13.06-.19,31.56-.46,44.4-.47l-.46.47,0-11.19.5.5c-7.37,0-26.17-.08-33.3-.17l-11.1-.13.21-.2-.21,11.19Zm0,0-.2-11.19v-.2h.2c5.54-.07,16.67-.19,22.2-.23l22.2-.07h.5v.5l0,11.19v.46h-.46c-12.91,0-31.32-.29-44.4-.46Z" style="fill:#ebebeb"></path><rect x="521.61" y="272.32" width="44.4" height="11.19" transform="translate(1087.63 555.82) rotate(180)" style="fill:#ebebeb"></rect><rect x="65.76" y="390.48" width="44.4" height="11.19" transform="translate(175.93 792.16) rotate(180)" style="fill:#ebebeb"></rect><rect x="90.53" y="44.93" width="44.4" height="11.19" transform="translate(225.46 101.06) rotate(180)" style="fill:#ebebeb"></rect><path d="M65.76,70.23c13.06-.18,31.56-.46,44.4-.46l-.46.46,0-11.19.5.5c-7.37,0-26.17-.07-33.3-.17l-11.1-.13L66,59l-.21,11.19Zm0,0L65.56,59v-.2h.2c5.54-.07,16.67-.18,22.2-.22l22.2-.08h.5V59l0,11.19v.47h-.46c-12.91,0-31.32-.3-44.4-.47Z" style="fill:#ebebeb"></path><path d="M615.07,56.12c13-.18,31.56-.46,44.4-.46l-.46.46,0-11.19.5.5c-7.38,0-26.17-.07-33.3-.17l-11.1-.13.2-.2-.2,11.19Zm0,0-.2-11.19v-.2h.2c5.54-.07,16.66-.18,22.2-.22l22.2-.08h.5v.5l0,11.19v.47h-.46c-12.92,0-31.32-.3-44.4-.47Z" style="fill:#ebebeb"></path><rect x="85.76" y="130.16" width="158.25" height="103.33" style="fill:#ebebeb"></rect><rect x="101.42" y="150.03" width="15.39" height="15.39" style="fill:#fff"></rect><rect x="120.01" y="150.03" width="15.39" height="15.39" style="fill:#dbdbdb"></rect><rect x="138.61" y="150.03" width="15.39" height="15.39" style="fill:#fff"></rect><rect x="157.2" y="150.03" width="15.39" height="15.39" style="fill:#fff"></rect><rect x="175.79" y="150.03" width="15.39" height="15.39" style="fill:#fff"></rect><rect x="194.38" y="150.03" width="15.39" height="15.39" style="fill:#fff"></rect><rect x="212.98" y="150.03" width="15.39" height="15.39" style="fill:#fff"></rect><rect x="101.42" y="168.75" width="15.39" height="15.39" style="fill:#fff"></rect><rect x="120.01" y="168.75" width="15.39" height="15.39" style="fill:#fff"></rect><rect x="138.61" y="168.75" width="15.39" height="15.39" style="fill:#fff"></rect><rect x="157.2" y="168.75" width="15.39" height="15.39" style="fill:#fff"></rect><rect x="175.79" y="168.75" width="15.39" height="15.39" style="fill:#dbdbdb"></rect><rect x="194.38" y="168.75" width="15.39" height="15.39" style="fill:#fff"></rect><rect x="212.98" y="168.75" width="15.39" height="15.39" style="fill:#fff"></rect><rect x="101.42" y="187.47" width="15.39" height="15.39" style="fill:#fff"></rect><rect x="120.01" y="187.47" width="15.39" height="15.39" style="fill:#fff"></rect><rect x="138.61" y="187.47" width="15.39" height="15.39" style="fill:#fff"></rect><rect x="157.2" y="187.47" width="15.39" height="15.39" style="fill:#fff"></rect><rect x="175.79" y="187.47" width="15.39" height="15.39" style="fill:#fff"></rect><rect x="194.38" y="187.47" width="15.39" height="15.39" style="fill:#fff"></rect><rect x="212.98" y="187.47" width="15.39" height="15.39" style="fill:#fff"></rect><rect x="101.42" y="206.2" width="15.39" height="15.39" style="fill:#fff"></rect><rect x="120.01" y="206.2" width="15.39" height="15.39" style="fill:#fff"></rect><rect x="138.61" y="206.2" width="15.39" height="15.39" style="fill:#fff"></rect><rect x="157.2" y="206.2" width="15.39" height="15.39" style="fill:#fff"></rect><rect x="175.79" y="206.2" width="15.39" height="15.39" style="fill:#fff"></rect><rect x="194.38" y="206.2" width="15.39" height="15.39" style="fill:#fff"></rect><rect x="212.98" y="206.2" width="15.39" height="15.39" style="fill:#fff"></rect><rect x="91.96" y="119.19" width="6.01" height="15.88" style="fill:#c7c7c7"></rect><rect x="105.95" y="119.19" width="6.01" height="15.88" style="fill:#c7c7c7"></rect><rect x="119.93" y="119.19" width="6.01" height="15.88" style="fill:#c7c7c7"></rect><rect x="133.92" y="119.19" width="6.01" height="15.88" style="fill:#c7c7c7"></rect><rect x="147.9" y="119.19" width="6.01" height="15.88" style="fill:#c7c7c7"></rect><rect x="161.89" y="119.19" width="6.01" height="15.88" style="fill:#c7c7c7"></rect><rect x="175.87" y="119.19" width="6.01" height="15.88" style="fill:#c7c7c7"></rect><rect x="189.86" y="119.19" width="6.01" height="15.88" style="fill:#c7c7c7"></rect><rect x="203.84" y="119.19" width="6.01" height="15.88" style="fill:#c7c7c7"></rect><rect x="217.83" y="119.19" width="6.01" height="15.88" style="fill:#c7c7c7"></rect><rect x="231.81" y="119.19" width="6.01" height="15.88" style="fill:#c7c7c7"></rect><rect x="588.58" y="210.46" width="87.57" height="106.22" style="fill:#ebebeb"></rect><rect x="598.59" y="220.16" width="67.56" height="86.83" style="fill:#fff"></rect><rect x="598.59" y="220.16" width="2.64" height="86.83" style="fill:#c7c7c7"></rect><rect x="676.16" y="210.46" width="2.64" height="106.22" style="fill:#c7c7c7"></rect><rect x="621.23" y="240.24" width="15.93" height="47.46" style="fill:#dbdbdb"></rect><path d="M657.26,255.88H613.78V231.63h43.48Zm-42.48-1h41.48V232.63H614.78Z" style="fill:#ebebeb"></path><rect x="534.09" y="74.15" width="87.57" height="106.22" style="fill:#ebebeb"></rect><rect x="544.1" y="83.85" width="67.56" height="86.83" style="fill:#fff"></rect><rect x="544.1" y="83.85" width="2.64" height="86.83" style="fill:#c7c7c7"></rect><rect x="621.67" y="74.15" width="2.64" height="106.22" style="fill:#c7c7c7"></rect><rect x="571.34" y="106.29" width="13.65" height="34.51" style="fill:#ebebeb"></rect><path d="M599.85,151.55H562.19V126.77h37.66Zm-36.66-1h35.66V127.77H563.19Z" style="fill:#dbdbdb"></path></g><g id="freepik--Table--inject-35"><path d="M59,454.35c202.46-.62,429.58-.62,632,0-202.46.61-429.58.61-632,0Z" style="fill:#263238"></path></g><g id="freepik--Plant--inject-35"><path d="M688.61,312.66c-19.36,26.23-39.55,56.66-44.47,89.55-.06.5.74.66.85.17a196,196,0,0,1,8.57-26.33c12.73-3.51,25.23-6.38,31.91-19,6.82-13,5.95-29.93,4.66-44.08C690,312.2,689,312.16,688.61,312.66Z" style="fill:#FFC017"></path><path d="M653.75,375.8c8.7-19.52,19.87-39.12,34.06-55.18.1-.1.25.05.16.16-9.29,11.43-16.36,23.89-23.25,36.55,6.41-6.51,13.43-12.34,19.51-19.24.12-.13.31.06.19.2-6,7.23-12.62,15.1-20.47,20.45q-3.16,5.83-6.39,11.69c.53-.3,1.07-.56,1.62-.83.09-.05.18.1.08.14-.6.31-1.19.63-1.81.89-1,1.84-2,3.69-3.08,5.53C654.14,376.57,653.57,376.21,653.75,375.8Z" style="fill:#263238"></path><path d="M660.22,369a114.81,114.81,0,0,0,14.87-9.92c.12-.11.31.07.18.18a78.59,78.59,0,0,1-14.83,10.1A.21.21,0,0,1,660.22,369Z" style="fill:#263238"></path><path d="M641.9,397.33c0,.39.72.39.71,0,.1-10.83,0-21.71.17-32.59,2.78-5.6,8.73-8.7,12.87-13.18a58,58,0,0,0,7.73-10.76,77.33,77.33,0,0,0,9-29.88c1.14-11.58-3.25-49.81-8.14-48.48-2.53.68-10.73,19.62-12.9,25.88A181.17,181.17,0,0,0,643.59,320C639.63,345.5,640,371.68,641.9,397.33Z" style="fill:#FFC017"></path><path d="M641.82,350.6l0,0c.6-13.7,3.68-27.54,6.57-40.84,3.12-14.31,6.76-27.8,14.12-40.57.14-.24.49,0,.37.22a150.65,150.65,0,0,0-11.34,31.14c.49-.77,1.09-1.51,1.6-2.24.2-.28.68,0,.48.28a20.26,20.26,0,0,1-2.3,3.25.16.16,0,0,1-.1.05c-2.54,10.23-4.36,20.7-5.91,31.14.11-.13.22-.27.34-.4s.22,0,.16.12c-.19.35-.41.69-.62,1-.78,5.3-1.51,10.59-2.24,15.83,9.43-8.06,17.49-17.57,22-29.29,0-.05.11,0,.09,0-4.45,12.15-11.48,22.95-22.28,30.33l-.6,4.23c0,.29-.51.21-.51-.07,0-1.25.07-2.5.12-3.75A.29.29,0,0,1,641.82,350.6Z" style="fill:#263238"></path><path d="M646.27,330.75c7.21-10.77,14-21.22,19.23-33.12,0-.13.28,0,.23.1-4.45,11.82-10.67,23.8-19.1,33.29C646.46,331.22,646.12,331,646.27,330.75Z" style="fill:#263238"></path><path d="M655.85,295c3-5.29,6.14-10.43,8.95-15.82.08-.15.29,0,.23.13a82.58,82.58,0,0,1-8.71,16C656.12,295.51,655.68,295.28,655.85,295Z" style="fill:#263238"></path><path d="M654.69,297.27a0,0,0,1,1,0,.09A0,0,0,0,1,654.69,297.27Z" style="fill:#263238"></path><path d="M634.57,366A109.91,109.91,0,0,1,632,387.34c.11.77.22,1.54.34,2.34a101.8,101.8,0,0,0,3.81-23.79.7.7,0,0,0,0-.73v0a157,157,0,0,0-2.39-32.22c-3.35-19.91-10.68-39-24.56-53.93a1,1,0,0,0-1.53.32c-5.61,14.24-3.65,31.24,1.12,45.44a83,83,0,0,0,11,21.59C624.63,353,630.7,358.69,634.57,366Z" style="fill:#FFC017"></path><path d="M610.91,285.65c13.16,21.35,22.31,46.66,23.43,71.88,0,.45-.73.57-.79.11q-.48-3.39-1-6.75h0c-5.44-5.22-11-10.72-14.93-17.23-.06-.12.1-.25.19-.15,4.74,5.41,9.16,11,14.5,15.78q-1.41-8.35-3.38-16.47c-.35-.4-.69-.81-1-1.22s.15-.66.39-.39l.32.35a190.78,190.78,0,0,0-6.88-21.84c-3.35-4-7.09-7.45-9.53-12.26a.1.1,0,1,1,.17-.1c2,2.75,3.86,5.52,6.09,8.07.88,1,1.85,2,2.77,3a167.59,167.59,0,0,0-10.77-22.45A.29.29,0,0,1,610.91,285.65Z" style="fill:#263238"></path><path d="M613.57,312c4.25,5.73,9.1,11.19,13,17.1.12.17-.13.35-.27.21-5.08-4.76-9.38-11.27-13.07-17.14C613.17,312,613.45,311.82,613.57,312Z" style="fill:#263238"></path><path d="M627.22,330.41l.18.18a.14.14,0,0,1-.2.19l-.18-.18C626.9,330.48,627.09,330.28,627.22,330.41Z" style="fill:#263238"></path><path d="M590.3,326.69c1.06,11,6.84,24.11,13.88,32.57a34.48,34.48,0,0,0,11.26,8.79c4.88,2.41,10,5.19,15,7.17a98.55,98.55,0,0,1,5.31,18.9c.17-.55.33-1.13.49-1.68C633,364.63,615,340.86,592,325.6A1.12,1.12,0,0,0,590.3,326.69Z" style="fill:#FFC017"></path><path d="M598.25,334.91c-.16-.14.06-.44.24-.3,12.2,9,23.19,22.21,29.33,36.15.17.38-.35.71-.57.33q-1.61-2.8-3.27-5.49h0c-5.25-1-10.23-4.68-14.13-8.19-.1-.1,0-.25.16-.16a32.11,32.11,0,0,0,6.65,4.67c2.14,1.09,4.44,1.77,6.67,2.64-1.95-3.09-4-6.05-6.09-8.93-5.66-1.92-11-5.4-15.79-8.87-.15-.11,0-.36.14-.26a158.27,158.27,0,0,0,14.68,7.85,131.15,131.15,0,0,0-10.36-12.08c-1.79-.95-3.6-1.89-5.33-2.9-.14-.08,0-.33.11-.27a18.91,18.91,0,0,1,4.09,2C602.68,339,600.54,336.93,598.25,334.91Z" style="fill:#263238"></path><path d="M598.74,344.51a7.12,7.12,0,0,1,.89.63c.08.08,0,.19-.11.15a7.65,7.65,0,0,1-.93-.52C598.43,344.66,598.58,344.41,598.74,344.51Z" style="fill:#263238"></path><polygon points="672.2 454.35 609.12 454.35 614.21 396.9 615.33 384.23 665.99 384.23 667.11 396.9 672.2 454.35" style="fill:#455a64"></polygon><polygon points="667.11 396.9 614.21 396.9 615.33 384.23 665.99 384.23 667.11 396.9" style="fill:#263238"></polygon><rect x="612.31" y="375.37" width="56.7" height="12.54" style="fill:#455a64"></rect></g><g id="freepik--Character--inject-35"><path d="M313.64,321.79A6.82,6.82,0,0,0,317,328a52,52,0,0,0,5.75,3.23,203.7,203.7,0,0,1,.71-20.86c.5-8,1.54-15.83,2.76-23.72a.1.1,0,0,1,.2,0c-.66,8-1,16.09-1.45,24.11-.39,7-.21,14.15-.64,21.17,2,.92,4.14,1.73,6.25,2.47,0-2.46-.07-4.91-.06-7.38,0-7.4.69-14.69,1.1-22.06a.13.13,0,1,1,.25,0c-.29,7.18,0,14.46.1,21.64,0,2.78.07,5.55.14,8.32,1.45.47,2.9.92,4.33,1.33,1,.27,1.91.53,2.86.77.06-4.85.4-9.74.59-14.49.31-7.68,1.1-15.31,1.53-23a.2.2,0,1,1,.39,0c-.38,7.64-.25,15.34-.45,23-.14,4.92-.05,10-.21,14.95a116,116,0,0,0,39.13,2,173.87,173.87,0,0,0,22.45-4.07c1.79-.43,6.34-1.69,10.84-3,0-2.32.15-4.64.17-6.88,0-5.11.38-10.26.28-15.37,0-.15.19-.15.2,0,.27,5.13.84,10.22.95,15.37,0,2.07.14,4.2.16,6.36,1.61-.47,3.15-.94,4.51-1.38-.51-9.66.11-19.48.17-29.11a.16.16,0,1,1,.32,0c.38,9.45,1.35,19,1.22,28.56a15.61,15.61,0,0,0,3-1.17c2.23-1.75.74-40,.6-48.87-.25-16.62-.07-99.41-5-115.35-1.79-5.77-7.49-23.16-28.15-32-6.59-2.82-14.31-2.14-21.36-2.18-34.23-.16-45.27,24-48.43,66.38-1.23,16.39-6.3,95.48-7.57,111.88C314.28,313,313.72,317.42,313.64,321.79Z" style="fill:#263238"></path><path d="M367.06,290.71c70.74-11.13,164.19-39.83,167.65-64.32,3.85-27.28-86.85-23.64-87.22-19.47-.32,3.53-49.06,32-92.26,59S349.57,293.46,367.06,290.71Z" style="fill:#f7a9a0"></path><path d="M450.6,279.31l-50.43-51.59s-43.6,30.64-62.66,51.33c-10.68,11.59-1.81,20,12.44,20C399.83,298.85,450.6,279.31,450.6,279.31Z" style="fill:#FFC017"></path><path d="M450.6,279.31l-50.43-51.59s-43.6,30.64-62.66,51.33c-10.68,11.59-1.81,20,12.44,20C399.83,298.85,450.6,279.31,450.6,279.31Z" style="fill:#FFC017"></path><path d="M404.9,292.46C388.41,296.05,369.12,299,350,299c-14.25,0-23.11-8.4-12.44-20a205.18,205.18,0,0,1,15.82-15Z" style="opacity:0.1"></path><path d="M393.81,237.45c7.11,8.58,27,31.29,41.92,44.36.09.08.43-.22.36-.32-10.75-12.73-34-36.56-41.77-44.49C394.17,236.85,393.68,237.29,393.81,237.45Z" style="fill:#263238"></path><path d="M233.11,454.66l177.3-.45-10.72-66.76S415,368.81,412.12,348.6c-3.18-22.16-43.06-78.29-46.42-81.45-13.49-12.69-27.69-16.09-40.55-9.44C280.9,280.58,233.11,454.66,233.11,454.66Z" style="fill:#FFC017"></path><path d="M362.79,264.57H315.88c.39-.37.78-.74,1.17-1.08h44.41C361.91,263.84,362.35,264.2,362.79,264.57ZM377.31,283H301.13c-.23.36-.46.72-.7,1.08h77.62ZM390,302.44H289.79l-.57,1.08H390.7C390.48,303.16,390.26,302.8,390,302.44Zm11.34,19.48H280.24l-.49,1.08H402Zm8.9,19.47H271.77l-.45,1.08h139.3C410.51,342.12,410.39,341.76,410.27,341.39ZM264,360.87c-.13.36-.27.72-.41,1.08H411.67c.07-.36.13-.72.19-1.08Zm-7.19,19.48c-.13.36-.25.72-.38,1.07H403.83c.21-.34.42-.7.64-1.07Zm144.86,19.47H250.08l-.36,1.08H401.85Zm3.12,19.48H243.72c-.12.36-.23.71-.34,1.07H405Zm3.13,19.47H237.71c-.1.37-.21.72-.32,1.08H408.1Z" style="fill:#fff"></path><path d="M369,382.34a161.52,161.52,0,0,0-23.55,3.87c-3.84,1-7.6,2.14-11.36,3.38-1.87.62-3.75,1.17-5.65,1.72a25.12,25.12,0,0,1-6.07,1.14.15.15,0,0,0,0,.29,43.77,43.77,0,0,0,5.84-.11,42.06,42.06,0,0,0,5.57-1.05c3.9-1,7.75-2.1,11.64-3.1,7.85-2,15.69-4,23.67-5.49C369.46,382.93,369.37,382.3,369,382.34Z" style="fill:#263238"></path><path d="M388.6,389.37a174.57,174.57,0,0,0-19.67-.94c-3.29,0-6.55.27-9.82.58-1.57.15-3.13.33-4.68.53-1.72.22-3.4.67-5.12.86-.18,0-.18.3,0,.29,1.62-.14,3.27,0,4.9,0l4.91-.13c3.28-.08,6.55-.12,9.83-.23,6.56-.23,13.09-.38,19.65-.38C389,389.91,388.94,389.41,388.6,389.37Z" style="fill:#263238"></path><path d="M303.62,276.75c-44.21,56.34-94.39,161.06-80.24,181.34,15.76,22.59,78.5-48.2,75.94-51.51-2.18-2.8,16.59-70.57,29.82-119.77S314.55,262.82,303.62,276.75Z" style="fill:#f7a9a0"></path><path d="M249.32,344.42l71.82,5.92s12.81-51.78,13.63-79.92c.46-15.77-8.75-15.53-19.46-6.14C277.82,297.14,249.32,344.42,249.32,344.42Z" style="fill:#FFC017"></path><path d="M319.56,338.81c-11-1.82-40.88-5.92-60.66-6-.12,0-.18.46-.06.47,16.44,2.59,49.55,5.38,60.64,6.25C319.69,339.5,319.77,338.85,319.56,338.81Z" style="fill:#263238"></path><path d="M312.38,349.62c2.94,0,5.87.07,8.8.18l-.57.42c1.36-7.9,3-15.75,4.74-23.56s3.73-15.58,6.06-23.28c-1.1,7.95-2.59,15.83-4.21,23.68s-3.47,15.65-5.53,23.4l-.13.48-.45-.06C318.19,350.52,315.28,350.1,312.38,349.62Z" style="fill:#263238"></path><path d="M328.2,319.07a22.17,22.17,0,0,1,2-4.69A32.81,32.81,0,0,1,333,310.1a8.94,8.94,0,0,1-.6,2.51,17.5,17.5,0,0,1-1.06,2.33A16.75,16.75,0,0,1,328.2,319.07Z" style="fill:#263238"></path><path d="M224.33,459.92c16.89,10.22,74,3.57,150.28-13.78,10.56-2.4-14.62-75.57-26-73.59-14.37,2.5-69.59,15.31-73.51,16.76C242,401.52,212.87,453,224.33,459.92Z" style="fill:#f7a9a0"></path><path d="M324.47,382.35s4.49-1.93,26.58-16c15.27-9.72,58.67-23.64,99.75,6.36,15.75,11.5,14.55,27.56-3.92,18.52-13-6.36-21.48-11.89-26.31-12.78,0,0,9.52,20,3.25,31.24-2.81,5-10.78,18.51-18.48,28.14a50.07,50.07,0,0,1-5.57-3,27,27,0,0,1-26.39,11.49Z" style="fill:#f7a9a0"></path><path d="M367.1,359.42c9.38,1.42,29.21,4.77,44.48,13.16,16.95,9.31,47.11,31.82,40.1,44.27-5.13,9.13-17.4,1.54-17.4,1.54s10.5,11.93,4.06,19.16c-5.87,6.59-15,.16-15,.16s5.13,8.33-1.75,13.59c-8.27,6.32-17.66-12.18-31.57-13C386.88,438.1,367.1,359.42,367.1,359.42Z" style="fill:#f7a9a0"></path><path d="M398.75,388.85c8.6,2.79,26.51,14.13,35.53,29.14.2.34.06.68-.2.41A190,190,0,0,0,398.66,389C398.57,389,398.65,388.82,398.75,388.85Z" style="fill:#263238"></path><path d="M389.84,406.25c7.18,3.16,25.12,15.68,33.73,31.2.2.35,0,.67-.21.39C409.93,422.2,396.23,411,389.75,406.4A.09.09,0,0,1,389.84,406.25Z" style="fill:#263238"></path><path d="M248.41,409.41c2.57-2.92,10.15-12.21,22.19-18.22,10.5-5.24,25.46-8,33.26-9,.19,0,.27.2.08.26-6.73,2.29-20.42,5.19-31.68,10.64a98.77,98.77,0,0,0-23.64,16.47C248.48,409.72,248.28,409.55,248.41,409.41Z" style="fill:#263238"></path><path d="M534.83,224.66c1.28-19.28-20.73-48.52-70.13-107-6.84-8.09-66.95,27.07-60.09,36.09,8.63,11.36,43,55.84,46.05,58.59C476.14,235.57,534,237.74,534.83,224.66Z" style="fill:#f7a9a0"></path><path d="M468.62,129.7c-5.3-21.49-18-43.83-25-49.67S403.8,64.45,396,63.77s-34.23-2.85-39.27,2c-4,3.93,1.93,12.06,17.76,13.7,13.93,1.45,16.87,3.53,23,7.24,3.77,2.27,16,10.86,14.86,17.13-.68,3.69-9.33,10-16,8.81s-10.68-7.77-18.94-11.63-20.16-.15-20,3.29,4.5,4,13.47,13.48c5.77,6.12,9.89,18.24,22,28.23,6.08,5,20.1,12.76,20.1,12.76Z" style="fill:#f7a9a0"></path><path d="M436.75,84c-4.57-7.45-30.82-23-38.67-25.65-12.24-4.11-37.46-7.27-39.2,1.26-2.5,12.21,27.18,15.74,30.22,17.08,5.92,2.6,28.52,23.25,28.52,23.25Z" style="fill:#f7a9a0"></path><path d="M405.23,88.93a138.56,138.56,0,0,0-13.72-10.55,9.4,9.4,0,0,0-3.85-1.5C378.9,75,365.55,72.41,359.6,65.3c-2-2.46-2.21-6.53.21-8.87,5.88-5.29,18.76-2.74,25.93-1.58a104.69,104.69,0,0,1,14.79,3.85c8.63,3.93,16.37,9.42,24.17,14.72a86.1,86.1,0,0,1,6.93,5.23c-4.61-3.49-9.59-6.47-14.49-9.53-7.4-4.43-14.65-9.39-23.21-11.11-6.83-1.67-33.84-8-34.47,2.86.31,9.18,22.11,13.45,29.48,15.27,3.84,1.32,6.83,4.39,9.9,6.89,2.19,1.91,4.33,3.87,6.39,5.9Z" style="fill:#263238"></path><path d="M441.76,92.7c-2.56-8.36-24.07-30-31-34.51-10.82-7-34-16.21-38.27-8.6-4.42,7.94,22.38,22,25,24.1,5.08,4,21.79,29.66,21.79,29.66Z" style="fill:#f7a9a0"></path><path d="M415.15,97.17c-5.35-7.45-10.46-15.22-16.64-22a14.11,14.11,0,0,0-3.76-2.38C388,69,371,59.85,371.27,51.22c.29-3.69,4.17-5.67,7.46-5.64,6.38,0,12.26,2.38,18,4.78a109.58,109.58,0,0,1,16.32,8.79C420.29,65,426.27,72.08,432.4,79c2,2.35,4,4.67,5.75,7.21-3.82-4.8-8.15-9.19-12.39-13.63s-8.52-8.9-13.36-12.51a121.83,121.83,0,0,0-16.21-8.49c-5.79-2.29-15.59-6.56-21.43-3.48-9.52,7.25,17.05,21.78,22.5,24.89a7.05,7.05,0,0,1,1.92,1.51,76.43,76.43,0,0,1,5.75,7.27q5.31,7.56,10.22,15.37Z" style="fill:#263238"></path><path d="M456.42,98.35c-7-13-19.65-31.47-24.49-36.1s-25.44-19.68-32.62-17c-9,3.37,4.85,17.66,11.45,23.32s8.71,17.58,8.71,17.58Z" style="fill:#f7a9a0"></path><path d="M396.66,51.08a27.77,27.77,0,0,0,6,8.6c4.08,4.69,9.26,8.35,13,13.39,4.64,6.72,5.87,15.17,5.93,23.16,0,3.56-.27,7.14-.59,10.63a69.07,69.07,0,0,0,1.66,21,60,60,0,0,1-2.82-21c.42-7.07.68-14.1-.68-21a32.48,32.48,0,0,0-4.63-12A39,39,0,0,0,409.33,68c-4.74-5.12-10.45-10.06-12.67-16.88Z" style="fill:#263238"></path><path d="M501.17,231.42c-3.81-.08-15.54.1-27.62-5.11-10.55-4.55-22.07-14-27.69-19.22-.14-.13,0-.33.14-.23,6,3.59,16.76,12,27.93,17a96.5,96.5,0,0,0,27.23,7.3A.13.13,0,1,1,501.17,231.42Z" style="fill:#263238"></path><path d="M312.38,266.89s38.38,32.89,51.22,29.28,3.79-44.78,3.79-44.78S336.36,241.37,312.38,266.89Z" style="fill:#f7a9a0"></path><path d="M332.39,263.13c.3,3.41,13,27.07,28.15,28.5,4.94.46,8.66-26.43,8.66-26.43l.73-1.92,10.16-26.92-29.63-25.58-4.32-3.44s-2.3,7.55-5.06,17l-.4,1.34c-.17.53-.33,1-.47,1.53-.43,1.4-.86,2.84-1.27,4.28-.31,1.09-.62,2.15-.9,3.31s-.6,2.28-.91,3.44C334.26,249.67,332.28,261.68,332.39,263.13Z" style="fill:#f7a9a0"></path><path d="M341.08,224.31a57.63,57.63,0,0,0,28.85,39l10.16-26.92-29.63-25.58-4.32-3.44S343.84,214.89,341.08,224.31Z" style="fill:#263238"></path><path d="M424,199.62c-5.3,50.21-35.94,52.72-46.76,51.57-9.82-1-43.11-5.83-43-56.31S359.32,131,381.9,132.16,429.31,149.41,424,199.62Z" style="fill:#f7a9a0"></path><path d="M338.24,197.82c8.88,3,15.48-17.41,15.48-17.41s40.2,1.33,49.94-29.65c0,0,2.55,21.53,21,34.8,0,0,6.31-39.26-20.43-47.3,0,0-33.66-20-58.37,3.16S332.27,195.8,338.24,197.82Z" style="fill:#263238"></path><path d="M404.27,148.45a35,35,0,0,1-4.67,14.09,36.69,36.69,0,0,1-9.94,11.29,30.3,30.3,0,0,1-3.16,2.09l-1.61,1c-.56.29-1.13.55-1.71.81-1.15.51-2.28,1.07-3.45,1.53s-2.4.74-3.6,1.09c-.6.16-1.2.36-1.81.51l-1.84.31-3.69.62c-2.48.17-5,.22-7.42.23,2.43-.52,4.87-.78,7.25-1.32l3.53-.91,1.76-.45c.58-.19,1.14-.43,1.7-.64,1.13-.44,2.26-.87,3.39-1.27s2.15-1.07,3.23-1.6l1.61-.8,1.51-1a31.51,31.51,0,0,0,3-2,41.94,41.94,0,0,0,9.83-10.4,43.94,43.94,0,0,0,3.55-6.32A43.28,43.28,0,0,0,404.27,148.45Z" style="fill:#263238"></path><path d="M418.54,198a33.35,33.35,0,0,1-3.46-.26c-1.32-.11-2.39-.07-3.47-.93a1.79,1.79,0,0,1-.29-2.16c.93-1.42,2.59-1.68,4.19-1.61a6.55,6.55,0,0,1,4.35,1.73A1.91,1.91,0,0,1,418.54,198Z" style="fill:#263238"></path><path d="M384.9,185.86a32.56,32.56,0,0,0,3.39.76c1.3.27,2.3.62,3.59.11a1.79,1.79,0,0,0,.9-2c-.48-1.62-2-2.35-3.54-2.75a6.56,6.56,0,0,0-4.67.41A1.9,1.9,0,0,0,384.9,185.86Z" style="fill:#263238"></path><path d="M391.25,200.14c0-.14-.28.12-.3.26-.37,3.4-1.37,7.22-4.59,7.91-.1,0-.11.2,0,.2C390.17,208.51,391.45,203.41,391.25,200.14Z" style="fill:#263238"></path><path d="M388.74,196.18c-5.39-1.19-7.36,9.66-2.37,10.76S393.25,197.17,388.74,196.18Z" style="fill:#263238"></path><path d="M386.5,196.36c-1.06.44-2.18,1.36-3.35,1.26-1.34-.11-2.13-1.42-2.8-2.67-.07-.13-.18-.06-.21.09-.41,2.07,0,4.35,2.18,5.06,2,.66,3.77-.92,4.67-2.91C387.16,196.82,386.93,196.18,386.5,196.36Z" style="fill:#263238"></path><path d="M409.75,202.47c.06-.12.22.21.19.35-.87,3.3-1.32,7.24,1.44,9,.08.06,0,.23-.07.18C407.75,210.67,408.39,205.46,409.75,202.47Z" style="fill:#263238"></path><path d="M413.52,199.68c5.45.82,3.4,11.66-1.65,10.89S409,199,413.52,199.68Z" style="fill:#263238"></path><path d="M415.65,200.82c.75.73,1.39,1.94,2.4,2.2,1.17.3,2.27-.71,3.24-1.68.1-.11.17,0,.15.14-.34,2.09-1.43,4.11-3.49,4.13-1.89,0-2.88-2-3-4.16C414.94,201.05,415.35,200.52,415.65,200.82Z" style="fill:#263238"></path><path d="M381.3,226.74c.58,1,1.08,2.26,2.25,2.69a9,9,0,0,0,3.77.12.12.12,0,0,1,.1.21,4.59,4.59,0,0,1-4.67.66c-1.42-.66-1.81-2.15-1.8-3.62C381,226.6,381.22,226.6,381.3,226.74Z" style="fill:#263238"></path><path d="M384.27,222c10.74.07,15.71,3.17,15.83,2.8l.76-8c.91.62,5.55,3.54,5.67,2.14.92-11.6,1.79-22.49.27-34.23a.33.33,0,0,0-.65,0c-1.33,11.11-.54,20.38-1.7,31.56-1.5-.82-3.92-2.29-5.31-2.46-.4.06-.69,7-.81,7.83,0,0-8.26-1.86-13.7-.46C382.76,221.64,381.92,222,384.27,222Z" style="fill:#263238"></path><path d="M378.85,215.24a16,16,0,1,1,19.8-15.66h0a16,16,0,0,1-19.8,15.66Zm7.11-29a13.84,13.84,0,1,0,10.55,13.33A13.75,13.75,0,0,0,386,186.27Z" style="fill:#37474f"></path><path d="M415.28,219.58c-5.94-1.46-9.84-8.86-8.81-17.14a19.07,19.07,0,0,1,4.73-10.67c2.62-2.8,5.83-4.12,9.05-3.72s6,2.47,7.86,5.82a19,19,0,0,1,2,11.51c-1.08,8.74-7.26,15.2-13.77,14.39C416,219.72,415.61,219.66,415.28,219.58Zm5.5-29.26a5.24,5.24,0,0,0-.79-.15,8.53,8.53,0,0,0-7.23,3.06,16.94,16.94,0,0,0-4.17,9.47c-.94,7.58,2.62,14.29,8,15s10.45-5,11.4-12.54a17,17,0,0,0-1.73-10.21A8.77,8.77,0,0,0,420.78,190.32Z" style="fill:#37474f"></path><path d="M397.89,201.35l-1.17-1.79c2.66-1.72,8.56-3.75,11.92.88l-1.73,1.25C403.91,197.54,398.13,201.2,397.89,201.35Z" style="fill:#37474f"></path><path d="M326.71,196.64l-1.76-1.2c.56-.82,5.64-8,10.47-8.22,4.52-.15,32.61,6,33.8,6.31l-.46,2.08c-8.05-1.78-29.77-6.38-33.26-6.25C332.31,189.48,328.08,194.66,326.71,196.64Z" style="fill:#37474f"></path><path d="M342.83,199.57S335,182,327.26,184.5s-4,26.5,3.65,31.17A8.52,8.52,0,0,0,343,213.33Z" style="fill:#f7a9a0"></path><path d="M328.51,191.36c-.13,0-.19.14-.08.21,5.32,3.46,7.31,9.4,8.36,15.37-1.3-2.47-3.41-4.09-6.67-2.6-.17.08-.07.34.1.34a5.25,5.25,0,0,1,5.32,2.89,25.35,25.35,0,0,1,1.82,5.12c.17.57,1.16.47,1.08-.16a.78.78,0,0,1,0-.14C340,205.05,336.27,193.63,328.51,191.36Z" style="fill:#263238"></path><path d="M410.05,237.93A113.21,113.21,0,0,0,418.28,224a31.47,31.47,0,0,1-8.23,13.91Z" style="fill:#263238"></path></g><g id="freepik--Lines--inject-35"><path d="M257.36,157.12a121.55,121.55,0,0,1,67.41-56.93,128.32,128.32,0,0,1,49.5-6,179.28,179.28,0,0,1,19.84,2.64c-5.75-.9-11.55-1.62-17.38-2-1.6-.09-5.8-.22-7.48-.3-18.24-.31-36.72,2.8-53.45,10.2a125.84,125.84,0,0,0-58.44,52.39Z" style="fill:#263238"></path><path d="M254.84,137.49c10.78-15.77,27.6-27.27,45.83-32.72,2.28-.75,5.59-1.35,7.94-1.92-21,5.51-40.33,17.5-53.77,34.64Z" style="fill:#263238"></path><path d="M289.8,134.5a73.07,73.07,0,0,1,36.92-29.76c2.14-.81,4.39-1.36,6.58-2a95.15,95.15,0,0,0-12.59,5.35A88.46,88.46,0,0,0,289.8,134.5Z" style="fill:#263238"></path></g><g id="freepik--light-bulbs-2--inject-35"><g style="opacity:0.5"><path d="M179.21,399.11a24.41,24.41,0,0,1-4.77,25.25,76.46,76.46,0,0,0,1.51,8.87l-16.37,7.41a76.06,76.06,0,0,0-5.67-7,24.4,24.4,0,0,1-22.11-13.07c-5.45-9.87-5-28.29,12.14-36.05l.17-.08C161.26,376.69,175.39,388.51,179.21,399.11Z" style="fill:#FFC017"></path></g><g style="opacity:0.7000000000000001"><path d="M177.22,400.1a22.34,22.34,0,0,1-4.36,23.1c.1,2.42,2.39,10.35,2.39,10.35l-15,6.78s-4.45-7-6.2-8.64a22.33,22.33,0,0,1-20.23-12c-5-9-4.58-25.86,11.11-33l.16-.07C160.81,379.59,173.73,390.41,177.22,400.1Z" style="fill:#FFC017"></path></g><rect x="155.58" y="413.94" width="1.2" height="28.79" transform="translate(-217.11 166.58) rotate(-34.93)" style="fill:#263238"></rect><rect x="168.35" y="408.15" width="1.2" height="28.79" transform="translate(-95.89 52.48) rotate(-13.8)" style="fill:#263238"></rect><path d="M160.6,421.09c-1.47.67-3.43-.09-5.16-1.4a2.16,2.16,0,0,1-1,1.4c-2.41,1.09-5.64-3.45-5.77-3.65l.32-.23c0,.05,3.17,4.47,5.28,3.52h0a1.9,1.9,0,0,0,.87-1.31,12,12,0,0,1-3.28-4c-.63-1.38-.47-2.41.43-2.82h0a1.58,1.58,0,0,1,1.66.15c1.29.93,1.94,3.78,1.74,5.87a6.45,6.45,0,0,1-.11.68c1.66,1.3,3.54,2.08,4.89,1.47h0c1.23-.56,1.8-2.18,1.9-4a7.33,7.33,0,0,1-3.46-3.66c-.81-1.79-.64-3.2.43-3.69.86-.39,1.75.26,2.44,1.77a13.24,13.24,0,0,1,1,5.32,2.64,2.64,0,0,0,2-.06h0c1.5-.68,1.21-4.84,1-6.38l.39-.06c0,.24.89,5.86-1.19,6.8h0a3,3,0,0,1-2.15.1C162.58,419,161.83,420.54,160.6,421.09Zm-1.13-11.36c-1,.46-.77,2-.24,3.15a7.29,7.29,0,0,0,3.11,3.41,12.32,12.32,0,0,0-1-5C161.1,410.69,160.36,409.32,159.47,409.73Zm-7.05,3.19h0c-.93.42-.55,1.62-.24,2.3a11.69,11.69,0,0,0,3,3.76,3.11,3.11,0,0,0,.06-.44c.19-1.93-.41-4.67-1.58-5.51A1.16,1.16,0,0,0,152.42,412.92Z" style="fill:#263238"></path><rect x="159.07" y="436.41" width="22.52" height="12.39" transform="translate(-167.36 109.62) rotate(-24.35)" style="fill:#c7c7c7"></rect><path d="M180.81,444.66c-.23,2.68-1.68,5.64-6.09,7.64s-7.59,1.13-9.77-.47Z" style="fill:#c7c7c7"></path><path d="M180.81,444.66a8,8,0,0,1-.54,2.33l-14.61,5.31c-.25-.15-.48-.3-.71-.47Z" style="fill:#a6a6a6"></path><polygon points="179.6 434.2 158.8 446.03 158.36 445.05 179.16 433.21 179.6 434.2" style="fill:#a6a6a6"></polygon><polygon points="180.95 437.18 160.15 449.01 159.71 448.03 180.51 436.19 180.95 437.18" style="fill:#a6a6a6"></polygon><polygon points="182.3 440.16 161.5 451.99 161.05 451.01 181.86 439.17 182.3 440.16" style="fill:#a6a6a6"></polygon><g style="opacity:0.5"><path d="M135.41,414.8c.81-.22,0-4.54,2.16-10.92,1-2.84,6.86-8.52,5.31-10.59s-6.76,3.13-8.26,8.22C132.21,409.69,134.66,415,135.41,414.8Z" style="fill:#fff"></path><path d="M172.78,398.85a1.18,1.18,0,0,0-1-2.14A1.18,1.18,0,0,0,172.78,398.85Z" style="fill:#fff"></path><path d="M173.33,418.09c1,.23,3.15-4.82,3-9.61-.15-4-1.83-8.32-2.87-8.15s1,6.26.86,8.91C174.12,412.58,172.24,417.84,173.33,418.09Z" style="fill:#fff"></path></g><g style="opacity:0.2"><path d="M104.35,448.35a24.4,24.4,0,0,1-10.87-23.28,78.06,78.06,0,0,0-6.41-6.32l9-15.58a77.19,77.19,0,0,0,8.68,2.37,24.4,24.4,0,0,1,25.59-2.29c10.18,4.82,20.58,20,11.19,36.35l-.1.17C132,456.08,113.63,454.73,104.35,448.35Z" style="fill:#FFC017"></path></g><path d="M105.38,446.38a22.33,22.33,0,0,1-9.94-21.29c-1.49-1.91-8-7-8-7l8.2-14.24s7.67,3.05,10.07,3.39a22.32,22.32,0,0,1,23.4-2.1c9.31,4.41,18.82,18.33,10.24,33.25l-.09.16C130.68,453.46,113.88,452.22,105.38,446.38Z" style="fill:#FFC017;opacity:0.30000000000000004"></path><rect x="105.39" y="396.79" width="1.2" height="28.79" transform="translate(-317.08 374.93) rotate(-70.65)" style="fill:#263238"></rect><rect x="98.4" y="408.95" width="1.2" height="28.79" transform="translate(-287.26 223.78) rotate(-49.52)" style="fill:#263238"></rect><path d="M106.63,419.64c.8-1.39,2.83-1.93,5-1.87a2.14,2.14,0,0,1,0-1.75c1.32-2.29,6.59-.48,6.82-.4l-.13.37c-.06,0-5.19-1.77-6.34.23h0a1.88,1.88,0,0,0,.06,1.57,12,12,0,0,1,5,1.36c1.32.76,1.79,1.69,1.29,2.55h0a1.57,1.57,0,0,1-1.43.84c-1.59,0-3.79-1.93-4.84-3.75a5,5,0,0,1-.31-.61c-2.11-.09-4.09.37-4.83,1.66h0c-.67,1.17-.19,2.82.81,4.37a7.27,7.27,0,0,1,5,1c1.69,1,2.38,2.21,1.8,3.24-.48.82-1.57.81-3,0a12.91,12.91,0,0,1-3.91-3.73,2.55,2.55,0,0,0-1.57,1.2h0c-.82,1.43,1.84,4.63,2.94,5.74l-.29.28c-.17-.17-4.13-4.24-3-6.22h0a2.93,2.93,0,0,1,1.69-1.34C106.22,422.47,106,420.81,106.63,419.64Zm7.55,8.57c.56-1-.54-2.06-1.65-2.7a7.29,7.29,0,0,0-4.52-.95,12.54,12.54,0,0,0,3.7,3.49C112.29,428.38,113.69,429.06,114.18,428.21ZM118,421.5h0c.5-.88-.5-1.63-1.15-2a11.81,11.81,0,0,0-4.64-1.3,3.72,3.72,0,0,0,.21.39c1,1.68,3.06,3.56,4.49,3.55A1.17,1.17,0,0,0,118,421.5Z" style="fill:#263238"></path><rect x="74.91" y="401.66" width="22.52" height="12.39" transform="translate(482.63 536.67) rotate(119.93)" style="fill:#c7c7c7"></rect><path d="M76.46,412.31c-1.38-2.32-1.93-5.56.48-9.76s5.51-5.35,8.2-5.33Z" style="fill:#c7c7c7"></path><path d="M76.46,412.31a8.25,8.25,0,0,1-.93-2.21l8.77-12.84a7.87,7.87,0,0,1,.84,0Z" style="fill:#a6a6a6"></path><polygon points="83.54 420.1 93.52 398.35 94.46 398.88 84.48 420.64 83.54 420.1" style="fill:#a6a6a6"></polygon><polygon points="80.71 418.47 90.69 396.71 91.63 397.25 81.65 419.01 80.71 418.47" style="fill:#a6a6a6"></polygon><polygon points="77.87 416.83 87.85 395.08 88.79 395.62 78.81 417.37 77.87 416.83" style="fill:#a6a6a6"></polygon><g style="opacity:0.5"><path d="M130.75,410.05c-.53.64,2.63,3.69,4.62,10.12.88,2.86-.59,10.92,1.87,11.7s3.66-6.49,1.91-11.49C136.33,412.32,131.24,409.45,130.75,410.05Z" style="fill:#fff"></path><path d="M109.72,444.81a1.18,1.18,0,0,0,2,1.17A1.18,1.18,0,0,0,109.72,444.81Z" style="fill:#fff"></path><path d="M98.05,429.51c-1,.41.25,5.75,3.18,9.54,2.44,3.14,6.35,5.69,7.09,4.95s-4.47-4.5-5.9-6.73C100.61,434.45,99.08,429.08,98.05,429.51Z" style="fill:#fff"></path></g><g style="opacity:0.2"><path d="M180.78,416.1a24.41,24.41,0,0,1-6.41-24.88,77.5,77.5,0,0,0-5.14-7.39l11.67-13.67a76.26,76.26,0,0,0,8.1,3.92,24.43,24.43,0,0,1,25.58,2.44c9.12,6.61,16.55,23.47,4.33,37.79l-.13.15C206.55,428.77,188.73,424.07,180.78,416.1Z" style="fill:#FFC017"></path></g><path d="M182.16,414.35a22.34,22.34,0,0,1-5.87-22.75c-1.12-2.15-6.56-8.35-6.56-8.35l10.67-12.5s7,4.41,9.28,5.18a22.33,22.33,0,0,1,23.39,2.23c8.34,6,15.14,21.47,4,34.56l-.11.14C205.73,426,189.44,421.65,182.16,414.35Z" style="fill:#FFC017;opacity:0.30000000000000004"></path><rect x="188.62" y="365.47" width="1.2" height="28.79" transform="translate(-234.4 354.36) rotate(-60.08)" style="fill:#263238"></rect><rect x="179.51" y="376.13" width="1.2" height="28.79" transform="translate(-205.43 199.97) rotate(-38.94)" style="fill:#263238"></rect><path d="M188.29,388.29c1-1.22,3.14-1.37,5.27-.92a2.11,2.11,0,0,1,.34-1.71c1.72-2,6.57.73,6.77.85l-.19.35s-4.77-2.7-6.28-.94h0a1.91,1.91,0,0,0-.23,1.55,12,12,0,0,1,4.69,2.26c1.16,1,1.45,2,.81,2.74h0a1.58,1.58,0,0,1-1.56.57c-1.57-.29-3.38-2.6-4.08-4.57-.08-.24-.14-.46-.19-.67-2.06-.47-4.09-.38-5,.75h0c-.88,1-.71,2.74,0,4.45a7.29,7.29,0,0,1,4.69,1.84c1.49,1.27,1.94,2.62,1.17,3.52-.61.72-1.69.51-2.95-.57a13,13,0,0,1-3.16-4.39,2.63,2.63,0,0,0-1.76.9h0c-1.07,1.25,1,4.88,1.83,6.18l-.33.22c-.13-.2-3.29-4.93-1.8-6.66h0a3,3,0,0,1,1.91-1C187.37,391,187.41,389.32,188.29,388.29Zm5.85,9.81c.73-.85-.16-2.12-1.13-3a7.27,7.27,0,0,0-4.26-1.77,12.36,12.36,0,0,0,3,4.11C192.25,397.92,193.5,398.85,194.14,398.1Zm5-5.88h0c.66-.77-.19-1.7-.76-2.19a11.64,11.64,0,0,0-4.32-2.12,3.38,3.38,0,0,0,.13.42c.65,1.83,2.36,4.06,3.77,4.32A1.2,1.2,0,0,0,199.16,392.22Z" style="fill:#263238"></path><rect x="159.08" y="366.76" width="22.52" height="12.39" transform="translate(564.56 485.64) rotate(130.5)" style="fill:#c7c7c7"></rect><path d="M160,375.55c-.92-2.53-.87-5.82,2.27-9.5s6.39-4.25,9-3.74Z" style="fill:#c7c7c7"></path><path d="M160,375.55a8.32,8.32,0,0,1-.5-2.34l11-11q.44,0,.84.12Z" style="fill:#a6a6a6"></path><polygon points="165.51 384.51 179.31 364.95 180.13 365.66 166.33 385.21 165.51 384.51" style="fill:#a6a6a6"></polygon><polygon points="163.02 382.38 176.83 362.83 177.65 363.53 163.85 383.08 163.02 382.38" style="fill:#a6a6a6"></polygon><polygon points="160.54 380.26 174.34 360.7 175.16 361.41 161.36 380.96 160.54 380.26" style="fill:#a6a6a6"></polygon><g style="opacity:0.5"><path d="M213.76,383.29c-.64.54,1.91,4.11,2.68,10.8.35,3-2.58,10.62-.3,11.84s4.78-5.71,4-10.95C218.83,386.55,214.35,382.79,213.76,383.29Z" style="fill:#fff"></path><path d="M186.71,413.6a1.18,1.18,0,0,0,1.8,1.53A1.18,1.18,0,0,0,186.71,413.6Z" style="fill:#fff"></path><path d="M178,396.42c-1,.22-.81,5.7,1.38,10,1.82,3.54,5.2,6.76,6.06,6.17s-3.57-5.25-4.56-7.7C179.66,401.75,179.13,396.19,178,396.42Z" style="fill:#fff"></path></g><g style="opacity:0.5"><path d="M100.21,414.6a24.4,24.4,0,0,1,16.92,19.33,77.4,77.4,0,0,0,7.92,4.28l-4.27,17.46a76.54,76.54,0,0,0-9,.15,24.41,24.41,0,0,1-23.94,9.33C76.72,463.35,62.5,451.64,67,433.36l0-.19C71.49,414.88,89.51,411.06,100.21,414.6Z" style="fill:#FFC017"></path></g><g style="opacity:0.7000000000000001"><path d="M99.76,416.77a22.33,22.33,0,0,1,15.48,17.68c2,1.42,9.62,4.51,9.62,4.51l-3.9,16s-8.22-.79-10.62-.45A22.31,22.31,0,0,1,88.45,463c-10.17-1.64-23.18-12.35-19.09-29.08l0-.17C73.49,417,90,413.54,99.76,416.77Z" style="fill:#FFC017"></path></g><rect x="108.39" y="436.36" width="1.2" height="28.79" transform="translate(-347.1 534.65) rotate(-86.83)" style="fill:#263238"></rect><rect x="111.72" y="422.73" width="1.2" height="28.79" transform="matrix(0.41, -0.91, 0.91, 0.41, -332.29, 359.57)" style="fill:#263238"></rect><path d="M106,442.81c-.38,1.56-2.18,2.64-4.29,3.19a2.14,2.14,0,0,1,.46,1.68c-.63,2.57-6.19,2.3-6.43,2.29l0-.4c.06,0,5.47.27,6-2h0a1.85,1.85,0,0,0-.49-1.49,11.91,11.91,0,0,1-5.2.09c-1.48-.36-2.19-1.12-2-2.09h0a1.58,1.58,0,0,1,1.14-1.2c1.54-.45,4.19.8,5.7,2.25a5.39,5.39,0,0,1,.47.5c2.05-.5,3.82-1.5,4.17-2.94h0c.32-1.31-.6-2.76-2-4a7.28,7.28,0,0,1-5,.47c-1.9-.47-2.91-1.47-2.63-2.61.23-.92,1.28-1.22,2.89-.83a13,13,0,0,1,4.8,2.5,2.61,2.61,0,0,0,1.17-1.59h0c.39-1.6-3.06-3.93-4.42-4.69l.19-.35c.21.12,5.16,2.92,4.62,5.14h0a3,3,0,0,1-1.26,1.75C105.62,440,106.34,441.49,106,442.81Zm-9.64-6.13c-.27,1.09,1.09,1.83,2.34,2.13a7.29,7.29,0,0,0,4.6-.34,12.3,12.3,0,0,0-4.53-2.32C98.14,436,96.61,435.72,96.38,436.68Zm-1.84,7.52h0c-.24,1,.94,1.43,1.66,1.6a11.54,11.54,0,0,0,4.82-.05c-.09-.1-.2-.21-.31-.31-1.4-1.35-3.93-2.56-5.3-2.16A1.16,1.16,0,0,0,94.54,444.2Z" style="fill:#263238"></path><rect x="117.69" y="442.22" width="22.52" height="12.39" transform="translate(-337.26 467.13) rotate(-76.26)" style="fill:#c7c7c7"></rect><path d="M137,441.43c2,1.85,3.4,4.81,2.25,9.52s-3.79,6.67-6.39,7.39Z" style="fill:#c7c7c7"></path><path d="M137,441.43a8.44,8.44,0,0,1,1.5,1.87l-4.84,14.78a7.46,7.46,0,0,1-.8.26Z" style="fill:#a6a6a6"></path><polygon points="128.06 435.93 124.54 459.6 123.49 459.35 127.01 435.67 128.06 435.93" style="fill:#a6a6a6"></polygon><polygon points="131.24 436.71 127.72 460.38 126.67 460.13 130.19 436.45 131.24 436.71" style="fill:#a6a6a6"></polygon><polygon points="134.41 437.49 130.89 461.16 129.84 460.9 133.37 437.23 134.41 437.49" style="fill:#a6a6a6"></polygon><g style="opacity:0.5"><path d="M85.52,458.74c.33-.77-3.55-2.82-7.25-8.44-1.65-2.49-2.47-10.64-5.06-10.7s-1.7,7.24,1.37,11.56C79.53,458.11,85.22,459.45,85.52,458.74Z" style="fill:#fff"></path><path d="M96,419.5a1.18,1.18,0,0,0-2.29-.56A1.18,1.18,0,0,0,96,419.5Z" style="fill:#fff"></path><path d="M111.51,430.93c.81-.65-1.84-5.45-5.72-8.27-3.22-2.34-7.68-3.7-8.18-2.78s5.54,3.08,7.54,4.82C107.67,426.9,110.64,431.63,111.51,430.93Z" style="fill:#fff"></path></g><g style="opacity:0.5"><path d="M197.23,476.43a24.41,24.41,0,0,1-17.14-19.14,76.52,76.52,0,0,0-8-4.2l4.08-17.5a76.38,76.38,0,0,0,9-.25,24.41,24.41,0,0,1,23.83-9.6c11.14,1.68,25.49,13.23,21.22,31.57l0,.19C226,475.83,208,479.85,197.23,476.43Z" style="fill:#FFC017"></path></g><g style="opacity:0.7000000000000001"><path d="M197.66,474.25A22.34,22.34,0,0,1,182,456.74c-2-1.39-9.67-4.39-9.67-4.39l3.73-16s8.22.7,10.62.33a22.31,22.31,0,0,1,21.8-8.78c10.18,1.53,23.31,12.1,19.41,28.87l0,.17C223.92,473.7,207.47,477.38,197.66,474.25Z" style="fill:#FFC017"></path></g><rect x="187.46" y="425.98" width="1.2" height="28.79" transform="translate(-260.21 608.75) rotate(-87.46)" style="fill:#263238"></rect><rect x="184.28" y="439.64" width="1.2" height="28.79" transform="translate(-305.18 441.06) rotate(-66.33)" style="fill:#263238"></rect><path d="M191.11,448.29c.36-1.57,2.15-2.67,4.25-3.24a2.19,2.19,0,0,1-.48-1.68c.6-2.58,6.17-2.37,6.41-2.36l0,.4c-.05,0-5.47-.21-6,2h0a1.92,1.92,0,0,0,.51,1.48,12,12,0,0,1,5.2-.15c1.48.35,2.21,1.1,2,2.07h0a1.57,1.57,0,0,1-1.13,1.22c-1.52.46-4.19-.76-5.72-2.19-.17-.17-.33-.33-.48-.5-2,.53-3.8,1.54-4.13,3h0c-.31,1.32.63,2.75,2,3.95a7.3,7.3,0,0,1,5-.52c1.9.45,2.92,1.44,2.66,2.59-.22.92-1.27,1.23-2.89.85a13.1,13.1,0,0,1-4.82-2.44,2.56,2.56,0,0,0-1.15,1.6h0c-.38,1.6,3.1,3.9,4.47,4.64l-.19.35c-.21-.11-5.19-2.86-4.67-5.08h0a3,3,0,0,1,1.23-1.77C191.54,451.12,190.8,449.61,191.11,448.29Zm9.71,6c.25-1.08-1.12-1.81-2.36-2.1a7.29,7.29,0,0,0-4.6.39,12.42,12.42,0,0,0,4.55,2.28C199.06,455,200.59,455.26,200.82,454.3Zm1.75-7.53h0c.23-1-.95-1.42-1.68-1.59a11.62,11.62,0,0,0-4.82.11l.32.31c1.42,1.33,4,2.51,5.33,2.1A1.18,1.18,0,0,0,202.57,446.77Z" style="fill:#263238"></path><rect x="156.86" y="436.73" width="22.52" height="12.39" transform="translate(637.64 379.68) rotate(103.11)" style="fill:#c7c7c7"></rect><path d="M160.11,450c-2-1.82-3.46-4.77-2.36-9.49s3.72-6.71,6.31-7.46Z" style="fill:#c7c7c7"></path><path d="M160.11,450a8.48,8.48,0,0,1-1.53-1.85l4.68-14.83a6.28,6.28,0,0,1,.8-.27Z" style="fill:#a6a6a6"></path><polygon points="169.15 455.4 172.41 431.69 173.46 431.94 170.2 455.65 169.15 455.4" style="fill:#a6a6a6"></polygon><polygon points="165.96 454.66 169.22 430.95 170.27 431.2 167.01 454.91 165.96 454.66" style="fill:#a6a6a6"></polygon><polygon points="162.77 453.92 166.03 430.21 167.09 430.45 163.83 454.17 162.77 453.92" style="fill:#a6a6a6"></polygon><g style="opacity:0.5"><path d="M211.43,432.12c-.32.78,3.58,2.78,7.35,8.36,1.67,2.48,2.59,10.62,5.17,10.66s1.62-7.27-1.5-11.55C217.43,432.69,211.73,431.41,211.43,432.12Z" style="fill:#fff"></path><path d="M201.35,471.48a1.18,1.18,0,0,0,2.3.54A1.18,1.18,0,0,0,201.35,471.48Z" style="fill:#fff"></path><path d="M185.75,460.22c-.8.67,1.9,5.43,5.81,8.21,3.25,2.3,7.72,3.61,8.21,2.69s-5.57-3-7.59-4.74C189.64,464.21,186.61,459.51,185.75,460.22Z" style="fill:#fff"></path></g><path d="M228.73,462.32A25.39,25.39,0,0,1,218.55,474l-2.84-4.11L211,468.34l1.14-4.76-4.9-2.08.33-2.35-2.93-.71h4.14l1,1.42,5.61-.5,2,3.95,5.52-2.33,1.32,1.82Z" style="fill:#fff"></path><path d="M247.05,455.77a27.77,27.77,0,0,1-1.13,16.92l-5.19-1.7-5.12,1.75-2.16-4.89-5.65,1.43L226.53,467l-3,1.33,3.61-2.74,1.79.59,4.56-4.15,4.32,2.14,3.26-5.69,2.36.71Z" style="fill:#FFC017"></path><g style="opacity:0.30000000000000004"><path d="M121,427.94a24.43,24.43,0,0,1,24.92,6.26,76.17,76.17,0,0,0,8.94-1L161.29,450a77.23,77.23,0,0,0-7.31,5.24,24.42,24.42,0,0,1-14.37,21.3c-10.17,4.86-28.53,3.33-35.26-14.25l-.07-.18C97.55,444.53,110.19,431.12,121,427.94Z" style="fill:#FFC017"></path></g><g style="opacity:0.30000000000000004"><path d="M121.87,430a22.32,22.32,0,0,1,22.79,5.72c2.42,0,10.48-1.78,10.48-1.78L161,449.28s-7.21,4-9,5.68a22.33,22.33,0,0,1-13.14,19.48c-9.3,4.44-26.09,3-32.25-13l-.07-.17C100.42,445.16,112,432.9,121.87,430Z" style="fill:#FFC017"></path></g><rect x="134.4" y="452.07" width="28.79" height="1.2" transform="translate(-214.76 144.65) rotate(-31.53)" style="fill:#263238"></rect><rect x="129.38" y="438.97" width="28.79" height="1.2" transform="translate(-76.95 33.15) rotate(-10.39)" style="fill:#263238"></rect><path d="M141.84,447.82c.57,1.51-.3,3.42-1.71,5.07a2.13,2.13,0,0,1,1.33,1.12c.95,2.47-3.78,5.42-4,5.55l-.21-.34s4.65-2.9,3.82-5.06h0a1.86,1.86,0,0,0-1.25-.94,12.12,12.12,0,0,1-4.23,3c-1.42.54-2.44.32-2.79-.6h0a1.57,1.57,0,0,1,.25-1.64c1-1.24,3.89-1.72,6-1.4a6.22,6.22,0,0,1,.68.15c1.39-1.58,2.28-3.41,1.75-4.79h0c-.48-1.27-2.06-1.93-3.9-2.13a7.3,7.3,0,0,1-3.86,3.23c-1.83.7-3.23.45-3.65-.65-.34-.88.36-1.73,1.91-2.33a13,13,0,0,1,5.36-.67,2.58,2.58,0,0,0,.06-2h0c-.59-1.54-4.75-1.49-6.31-1.35l0-.39c.24,0,5.9-.54,6.72,1.6h0a2.9,2.9,0,0,1,0,2.15C139.89,445.72,141.35,446.56,141.84,447.82Zm-11.42.46c.4,1,1.94.88,3.14.42a7.31,7.31,0,0,0,3.58-2.9,12.27,12.27,0,0,0-5,.67C131.48,446.7,130.07,447.36,130.42,448.28Zm2.77,7.22h0c.36.95,1.58.64,2.28.38a11.52,11.52,0,0,0,3.93-2.79L139,453c-1.92-.31-4.69.13-5.59,1.25A1.15,1.15,0,0,0,133.19,455.5Z" style="fill:#263238"></path><rect x="152.62" y="433.19" width="22.52" height="12.39" transform="translate(-187.83 749.57) rotate(-110.96)" style="fill:#c7c7c7"></rect><path d="M166.55,429c2.67.4,5.54,2,7.27,6.54s.68,7.64-1,9.72Z" style="fill:#c7c7c7"></path><path d="M166.55,429a8,8,0,0,1,2.3.68l4.44,14.9c-.16.24-.33.46-.51.68Z" style="fill:#a6a6a6"></path><polygon points="156.04 429.63 166.62 451.09 165.61 451.48 155.03 430.01 156.04 429.63" style="fill:#a6a6a6"></polygon><polygon points="159.1 428.46 169.68 449.92 168.67 450.31 158.09 428.84 159.1 428.46" style="fill:#a6a6a6"></polygon><polygon points="162.15 427.29 172.73 448.75 171.72 449.14 161.14 427.67 162.15 427.29" style="fill:#a6a6a6"></polygon><g style="opacity:0.5"><path d="M134.06,472.6c-.17-.82-4.53-.3-10.77-2.81-2.78-1.12-8.1-7.35-10.26-5.93s2.73,6.93,7.72,8.73C128.77,475.49,134.21,473.35,134.06,472.6Z" style="fill:#fff"></path><path d="M120.36,434.35a1.18,1.18,0,0,0-2.21.84A1.18,1.18,0,0,0,120.36,434.35Z" style="fill:#fff"></path><path d="M139.59,434.94c.29-1-4.62-3.44-9.41-3.55-4-.09-8.42,1.34-8.31,2.38s6.31-.63,8.94-.33C134.13,433.81,139.27,436,139.59,434.94Z" style="fill:#fff"></path></g></g><g id="freepik--light-bulb-1--inject-35"><g style="opacity:0.5"><path d="M205.65,179.18a24.41,24.41,0,0,1,24.79-6.72,75.4,75.4,0,0,0,7.33-5.23l13.81,11.5a76.58,76.58,0,0,0-3.82,8.15,24.41,24.41,0,0,1-2.13,25.61c-6.49,9.2-23.26,16.84-37.73,4.79l-.15-.12C193.29,205.11,197.77,187.23,205.65,179.18Z" style="fill:#FFC017"></path></g><g style="opacity:0.7000000000000001"><path d="M207.4,180.54a22.36,22.36,0,0,1,22.69-6.15c2.13-1.14,8.27-6.67,8.27-6.67L251,178.24s-4.33,7-5.07,9.34A22.34,22.34,0,0,1,244,211c-5.94,8.42-21.28,15.4-34.51,4.39l-.14-.12C196.1,204.25,200.2,187.9,207.4,180.54Z" style="fill:#FFC017"></path></g><rect x="227.59" y="186.57" width="28.79" height="1.2" transform="translate(-39.49 307) rotate(-60.78)" style="fill:#263238"></rect><rect x="216.81" y="177.6" width="28.79" height="1.2" transform="translate(-60.52 188.51) rotate(-39.65)" style="fill:#263238"></rect><path d="M233.54,186.34c1.24,1,1.41,3.13,1,5.26a2.15,2.15,0,0,1,1.71.32c2,1.7-.65,6.58-.77,6.79l-.35-.2s2.65-4.8.87-6.28h0a1.91,1.91,0,0,0-1.56-.21,12,12,0,0,1-2.2,4.71c-1,1.17-2,1.48-2.73.84h0a1.6,1.6,0,0,1-.58-1.55c.27-1.57,2.56-3.4,4.52-4.13.23-.08.46-.15.67-.2.44-2.06.33-4.09-.81-5h0c-1-.87-2.75-.67-4.45,0a7.35,7.35,0,0,1-1.79,4.71c-1.25,1.5-2.59,2-3.5,1.21-.73-.6-.54-1.68.53-3a13.08,13.08,0,0,1,4.35-3.21,2.6,2.6,0,0,0-.91-1.75h0c-1.27-1-4.88,1-6.16,1.91l-.23-.33c.2-.13,4.88-3.35,6.64-1.88h0a3,3,0,0,1,1,1.89C230.82,185.46,232.5,185.48,233.54,186.34Zm-9.74,6c.86.71,2.13-.18,2.95-1.17a7.29,7.29,0,0,0,1.71-4.28,12.48,12.48,0,0,0-4.08,3C224,190.43,223.05,191.69,223.8,192.32Zm5.95,5h0c.78.65,1.7-.22,2.17-.79a11.51,11.51,0,0,0,2.07-4.35l-.42.14c-1.82.67-4,2.4-4.27,3.82A1.19,1.19,0,0,0,229.75,197.27Z" style="fill:#263238"></path><rect x="237.39" y="162.01" width="22.52" height="12.39" transform="translate(332.05 456.59) rotate(-140.21)" style="fill:#c7c7c7"></rect><path d="M245.93,157.87c2.52-1,5.81-.94,9.53,2.16s4.33,6.33,3.84,9Z" style="fill:#c7c7c7"></path><path d="M245.93,157.87a8.7,8.7,0,0,1,2.34-.53l11.15,10.84a7.72,7.72,0,0,1-.12.84Z" style="fill:#a6a6a6"></path><polygon points="237.04 163.52 256.76 177.08 256.07 177.91 236.35 164.35 237.04 163.52" style="fill:#a6a6a6"></polygon><polygon points="239.14 161.01 258.86 174.57 258.17 175.4 238.44 161.84 239.14 161.01" style="fill:#a6a6a6"></polygon><polygon points="241.23 158.5 260.95 172.06 260.26 172.89 240.54 159.33 241.23 158.5" style="fill:#a6a6a6"></polygon><g style="opacity:0.5"><path d="M238.86,211.76c-.55-.64-4.09,2-10.77,2.81-3,.38-10.65-2.45-11.84-.16s5.76,4.71,11,3.85C235.66,216.86,239.36,212.34,238.86,211.76Z" style="fill:#fff"></path><path d="M208.22,185.08a1.18,1.18,0,0,0-1.51,1.81A1.18,1.18,0,0,0,208.22,185.08Z" style="fill:#fff"></path><path d="M225.28,176.2c-.23-1-5.7-.74-9.94,1.51-3.52,1.86-6.69,5.27-6.09,6.13s5.2-3.63,7.64-4.66C220,177.88,225.53,177.29,225.28,176.2Z" style="fill:#fff"></path></g></g><g id="freepik--speech-bubble--inject-35"><path d="M592.45,114.38a55.73,55.73,0,0,1-89,44.75l-27.31,7,11.37-25.43a55.75,55.75,0,1,1,104.9-26.29Z" style="fill:#fff"></path><path d="M592.45,114.38a55.94,55.94,0,0,1-75.61,52.39,56.85,56.85,0,0,1-13.54-7.38c1.32,0-27.29,7.06-27,7.09l-.79.21.33-.75,11.3-25.46,0,.41a54.89,54.89,0,0,1-6.61-24.42,56.52,56.52,0,0,1,20.07-45c36.57-30.3,91.62-4.61,91.85,42.88Zm0,0c.12-35.72-34.63-62.92-69.23-53.76-24.91,5.92-43.05,30.29-41.76,55.82a56,56,0,0,0,6.5,24l.11.21-.09.2-11.44,25.4-.46-.54,27.48-6.94A56.4,56.4,0,0,0,517,166.25a55.72,55.72,0,0,0,37.55.69,61.67,61.67,0,0,0,8.79-3.8c1.56-1,3.4-1.95,4.89-3,.5-.4,3.38-2.49,3.85-2.87a56.26,56.26,0,0,0,20.33-42.87Z" style="fill:#263238"></path><path d="M502.66,117.45a14.92,14.92,0,0,0,3.76,3.1c.9,3.24,4.1,5.47,7,6.83a35.67,35.67,0,0,0,10.77,3,68.31,68.31,0,0,0,18.5-.56c1.18,4.69,1,9.79.7,14.61,0,.13.18.12.19,0,.32-4.78.66-9.92-.32-14.7,1.2-.18,2.4-.38,3.59-.59,1.83-.33,3.69-.73,5.54-1.23a61.81,61.81,0,0,0,9.58-2.67c3.61-1.36,7-3.46,9-6.88a9.82,9.82,0,0,0-.13-10.24,17.84,17.84,0,0,0-3.09-3.75,24,24,0,0,0-2.4-2.24,31.09,31.09,0,0,0-9.57-5c-.9-.3-1.82-.58-2.74-.84l-.39-.19A39,39,0,0,0,541.42,93a56.93,56.93,0,0,0-24.27,1.93,54.53,54.53,0,0,0-11.36,4.86c-3.14,1.79-6,4.25-6.43,8a11.49,11.49,0,0,0,2,7.6A10.19,10.19,0,0,0,502.66,117.45Zm46.42,9.74q-3.11.56-6.26.87c-.07-.24-.13-.48-.21-.72.46-.08.92-.16,1.38-.26s.82-.2,1.24-.32a56.71,56.71,0,0,0,11.31-3,51.57,51.57,0,0,0,9.34-4.67c-3.8,4-9.59,6.28-14.76,7.59C550.44,126.9,549.76,127.05,549.08,127.19ZM526,97.35c1.1-.14,2.19-.26,3.29-.36a26.27,26.27,0,0,0-7.38,3.87,15.79,15.79,0,0,0-5.49,7.17,17.66,17.66,0,0,0-3.45,3c-.28.12-.57.24-.85.38a14.22,14.22,0,0,0-2.91,1.92c-.06-.14-.13-.26-.18-.4-1.08-3.24.79-6.27,3.09-8.41a30.12,30.12,0,0,1,9-5.47A40.15,40.15,0,0,1,526,97.35Zm-14.17,20.9a15.07,15.07,0,0,0,1.37.87,6.21,6.21,0,0,0-.61,1.24A7.39,7.39,0,0,1,511.8,118.25Zm30.12,9.2c.08.22.16.44.23.67a73.92,73.92,0,0,1-8.92.29c1.79-.13,3.59-.31,5.37-.53C539.71,127.74,540.82,127.61,541.92,127.45Zm-2.24-4.23a75.72,75.72,0,0,1-22.79-.63c-1-.19-1.94-.4-2.91-.65a3.91,3.91,0,0,1,.66-2.09A35.62,35.62,0,0,0,526,122.48a112.77,112.77,0,0,0,12.47.21.55.55,0,0,0,.53-.35l.12.13C539.33,122.72,539.5,123,539.68,123.22Zm-22.92-3.91c-.4-.14-.8-.29-1.21-.46a8.33,8.33,0,0,1,4.31-1.54,36.27,36.27,0,0,1,10.76,0,14,14,0,0,1,7.61,4.08C531.06,121.57,523.63,121.67,516.76,119.31Zm23.78,5.24c.22.38.42.76.61,1.15h-.07l-1.64.19c-.78,0-1.57.08-2.35.09a64.09,64.09,0,0,1-12-.91,79.15,79.15,0,0,0,12.88-.23C538.84,124.77,539.69,124.66,540.54,124.55Zm.89-.12q3.44-.5,6.81-1.28a7.08,7.08,0,0,1-2.78,1.64,19.09,19.09,0,0,1-3.5.8C541.8,125.2,541.62,124.81,541.43,124.43Zm-16.08,2.17c-.2,0-.4,0-.59,0a32.49,32.49,0,0,1-5.19-.86l-1.56-.39c-.27-.14-.54-.28-.8-.43l-.48-.31A66.59,66.59,0,0,0,525.35,126.6Zm-13.64-10a7.72,7.72,0,0,1,1.65-4.16,18.11,18.11,0,0,1,3.16-1.08,4.3,4.3,0,0,0,2.06,1.42,44.32,44.32,0,0,0,5.53,1.62,51.76,51.76,0,0,0,20.89.39,11.39,11.39,0,0,1,3.59,3.59,4.34,4.34,0,0,1,.57,3.18,76.46,76.46,0,0,1-8.47,1.57q-.35-.58-.75-1.14a14.69,14.69,0,0,0-8.8-5.77,36.06,36.06,0,0,0-11.31-.37,9.48,9.48,0,0,0-5.74,2.16.52.52,0,0,0-.1.11A14.13,14.13,0,0,1,511.71,116.58Zm47.59-9a4.61,4.61,0,0,1-1.6,1.5,26.1,26.1,0,0,0-9.26-5,37.72,37.72,0,0,0-21-.89,35.88,35.88,0,0,0-8.94,3.52l.17-.29a14.68,14.68,0,0,1,2.9-3.48c4.35-3.91,10.44-5.69,16.23-6.27h.44a56.24,56.24,0,0,1,18.29,3.44l.25.21C558.65,102,560.79,105.1,559.3,107.59Zm-41.67,1.08a31.56,31.56,0,0,1,7.78-3.64,36.57,36.57,0,0,1,19.33-.7,34.45,34.45,0,0,1,9.18,3.62,17.64,17.64,0,0,1,2.55,1.78c-.53.24-1.05.45-1.54.66a50.36,50.36,0,0,1-5.21,1.85c-1.35.4-2.72.72-4.1,1l-.15-.1c-6.24-3.93-13.94-4.55-21.13-4.28a42.19,42.19,0,0,0-6.9.73A3.43,3.43,0,0,1,517.63,108.67Zm2.31,2a56.35,56.35,0,0,1,10.63-.25,34.28,34.28,0,0,1,10,2.07c.85.33,1.72.72,2.59,1.16a49.74,49.74,0,0,1-14.72.06,48.49,48.49,0,0,1-5.18-1c-.93-.24-1.86-.51-2.78-.8a9.34,9.34,0,0,1-2.31-.91C518.74,110.87,519.34,110.77,519.94,110.7Zm38.89,5.47c-1.12,2.57-4.21,3.82-6.71,4.56-.36.11-.73.2-1.09.3.2-2.71-1.72-5-3.85-6.69h0a42.8,42.8,0,0,0,10.31-3.6C558.89,112.25,559.72,114.12,558.83,116.17Zm-48.24-.66a7.93,7.93,0,0,1-.67-.86,11.76,11.76,0,0,1,1.3-1c-.11.24-.23.47-.32.73A8,8,0,0,0,510.59,115.51Zm57.86,0a16.86,16.86,0,0,1-2.18,1.62,48.64,48.64,0,0,1-9,4.82,54.91,54.91,0,0,1-7.78,2.47,5.42,5.42,0,0,0,1.21-1.89l.12,0c3-.79,6.33-1.84,8.33-4.34a5.88,5.88,0,0,0,1.32-4.32,7.16,7.16,0,0,0-1.79-3.79,5.13,5.13,0,0,0,2.41-3.33,6.52,6.52,0,0,0-.74-4.08,9.49,9.49,0,0,0-.79-1.31A25.71,25.71,0,0,1,567,106a7.75,7.75,0,0,1,2.52,4.72,8.68,8.68,0,0,1-.93,4.58ZM511,121a28.86,28.86,0,0,1-3.24-1.63,5.09,5.09,0,0,1,1.27-3.79,10.57,10.57,0,0,0,1.47,1.6,8.59,8.59,0,0,0,1.2,4.07Zm-7.57-5.13a7.75,7.75,0,0,1-1.6-5.59,11.22,11.22,0,0,1,5.29-7.72c3.26-2.11,7.15-3,10.9-3.84l.59-.12a30,30,0,0,0-7.28,4.82c-2.43,2.21-4.39,5.3-3.82,8.71a7.86,7.86,0,0,0,.7,2.1,7.11,7.11,0,0,0-2,4.16A15.42,15.42,0,0,1,503.4,115.88Zm39.27-21.34a54.37,54.37,0,0,0-10.29.21,48.49,48.49,0,0,0-5.84,1.06c-2.15.25-4.29.58-6.4,1-7.14,1.35-16.25,3.24-19.21,10.86-.09.26-.16.51-.23.76a7.32,7.32,0,0,1,.42-2.13,9,9,0,0,1,3.27-4,41.47,41.47,0,0,1,10.12-5,56,56,0,0,1,22.28-3.33A53.12,53.12,0,0,1,542.67,94.54Zm21,28.53-.58.26a22.48,22.48,0,0,0,4.69-4.14,16,16,0,0,0,1.85-2.73,6.42,6.42,0,0,0,1.07-1.36,2.22,2.22,0,0,0,.13-.31,6.6,6.6,0,0,1-.21,1C569.58,119.16,566.73,121.55,563.64,123.07Zm-53.22.67a9.9,9.9,0,0,1-1.83-2,30.33,30.33,0,0,0,3.52,1.29l.24.1.06,0a5.12,5.12,0,0,0,3,3.15,24.81,24.81,0,0,0,5.65,1.68c.73.23,1.47.44,2.22.62s1.81.37,2.73.52a39.57,39.57,0,0,1-6.31-1.05C516.44,127.2,513,126,510.42,123.74Z" style="fill:#263238"></path></g><g id="freepik--Device--inject-35"><rect x="408.65" y="447.28" width="157.62" height="7.07" style="fill:#dbdbdb"></rect><rect x="486.93" y="447.28" width="79.33" height="7.07" style="fill:#a6a6a6"></rect><polygon points="491.75 454.34 645.36 454.34 665.44 350.01 511.83 350.01 491.75 454.34" style="fill:#a6a6a6"></polygon><polygon points="498 454.34 651.61 454.34 671.69 350.01 518.08 350.01 498 454.34" style="fill:#dbdbdb"></polygon><path d="M575.49,402.17a8.43,8.43,0,0,0,8.54,9.35,10.4,10.4,0,0,0,10.16-9.35,8.42,8.42,0,0,0-8.53-9.35A10.42,10.42,0,0,0,575.49,402.17Z" style="fill:#fff"></path></g></svg>