<?xml version="1.0" standalone="no"?>
<!DOCTYPE svg PUBLIC "-//W3C//DTD SVG 20010904//EN"
 "http://www.w3.org/TR/2001/REC-SVG-20010904/DTD/svg10.dtd">
<svg version="1.0" xmlns="http://www.w3.org/2000/svg"
 width="512.000000pt" height="512.000000pt" viewBox="0 0 512.000000 512.000000"
 preserveAspectRatio="xMidYMid meet">

<g transform="translate(0.000000,512.000000) scale(0.100000,-0.100000)"
fill="#000000" stroke="none">
<path d="M1963 5106 c-102 -33 -176 -97 -222 -196 -25 -53 -26 -62 -29 -282
l-3 -228 -393 0 c-447 0 -458 -2 -531 -75 -61 -61 -75 -111 -75 -275 0 -164
14 -214 75 -275 81 -81 -63 -75 1775 -75 1838 0 1694 -6 1775 75 61 61 75 111
75 275 0 164 -14 214 -75 275 -73 73 -84 75 -531 75 l-393 0 -3 228 c-3 221
-4 228 -29 283 -37 79 -90 133 -167 171 l-67 33 -570 2 c-452 2 -579 -1 -612
-11z m1131 -302 c13 -13 16 -46 16 -210 l0 -194 -550 0 -550 0 0 194 c0 164 3
197 16 210 14 14 76 16 534 16 458 0 520 -2 534 -16z"/>
<path d="M1020 3378 c0 -13 38 -657 84 -1433 92 -1549 84 -1466 159 -1610 50
-95 174 -213 277 -264 147 -72 128 -71 1020 -71 892 0 873 -1 1020 71 103 51
227 169 277 264 75 144 67 61 159 1610 46 776 84 1420 84 1433 l0 22 -1540 0
-1540 0 0 -22z m763 -292 c43 -17 85 -68 91 -109 10 -61 68 -2227 61 -2264 -9
-47 -63 -100 -111 -109 -77 -14 -166 45 -178 118 -5 32 -67 2089 -66 2214 0
72 24 116 80 145 41 22 79 24 123 5z m847 -6 c26 -13 47 -34 60 -60 20 -39 20
-56 20 -1170 0 -1114 0 -1131 -20 -1170 -23 -45 -80 -80 -131 -80 -46 0 -108
39 -130 82 -18 36 -19 77 -19 1170 1 1274 -5 1175 76 1224 48 29 92 30 144 4z
m855 -14 c21 -17 39 -41 46 -66 10 -31 5 -270 -20 -1142 -17 -607 -34 -1118
-37 -1136 -12 -73 -101 -132 -178 -118 -48 9 -102 62 -111 109 -7 37 51 2203
61 2264 6 40 48 91 89 109 43 20 108 11 150 -20z"/>
</g>
</svg>
